<?xml version="1.0" standalone="no"?>
<!DOCTYPE svg PUBLIC "-//W3C//DTD SVG 20010904//EN"
 "http://www.w3.org/TR/2001/REC-SVG-20010904/DTD/svg10.dtd">
<svg version="1.0" xmlns="http://www.w3.org/2000/svg"
 width="512.000000pt" height="512.000000pt" viewBox="0 0 48 48"
 preserveAspectRatio="xMidYMid meet">

<g transform="translate(0.000000,512.000000) scale(0.100000,-0.100000)"
fill="#000000" stroke="none">
<path d="M814 4905 c-290 -64 -525 -295 -594 -585 -18 -77 -20 -118 -20 -442
l0 -358 2360 0 2360 0 0 358 c0 324 -2 365 -20 442 -68 283 -297 512 -580 580
-84 20 -111 20 -1765 19 -1369 -1 -1691 -4 -1741 -14z m361 -532 c43 -22 65
-43 86 -85 36 -70 18 -180 -38 -230 -10 -10 -41 -27 -67 -39 -94 -41 -192 -4
-240 92 -31 62 -33 108 -7 165 46 102 168 146 266 97z m1484 -2 c109 -55 137
-210 55 -301 -69 -76 -166 -88 -256 -31 -120 77 -112 262 16 328 68 35 121 37
185 4z m-741 0 c74 -38 106 -97 100 -186 -5 -80 -38 -127 -115 -162 -67 -31
-127 -26 -186 13 -45 29 -87 109 -87 164 1 70 51 147 115 176 44 20 129 17
173 -5z"/>
<path d="M200 2008 c0 -1093 1 -1125 20 -1208 68 -285 295 -512 580 -580 84
-20 113 -20 1760 -20 1625 0 1677 1 1756 20 293 70 514 291 585 585 18 77 19
129 19 1203 l0 1122 -2360 0 -2360 0 0 -1122z m2758 253 c42 -22 63 -43 86
-88 18 -36 21 -118 5 -160 -15 -42 -475 -501 -524 -524 -47 -22 -82 -24 -139
-7 -31 9 -70 41 -164 133 -138 133 -162 170 -162 244 0 87 37 146 115 182 79
37 159 18 233 -54 l42 -41 158 156 c86 87 168 162 182 167 43 17 128 13 168
-8z"/>
</g>
</svg>
